<?xml version="1.0" encoding="UTF-8" standalone="no"?><svg xmlns="http://www.w3.org/2000/svg" xmlns:xlink="http://www.w3.org/1999/xlink" contentStyleType="text/css" height="857px" preserveAspectRatio="none" style="width:1584px;height:857px;background:#FFFFFF;" version="1.1" viewBox="0 0 1584 857" width="1584px" zoomAndPan="magnify"><defs/><g><!--MD5=[ea41ffa75052d2a61b82c6c320e22f73]
class AgoraRtmController--><g id="elem_AgoraRtmController"><rect codeLine="6" fill="#F1F1F1" height="146.0469" id="AgoraRtmController" rx="2.5" ry="2.5" style="stroke:#181818;stroke-width:0.5;" width="345" x="516.5" y="437"/><ellipse cx="611.75" cy="457.1328" fill="#DA70D6" rx="11" ry="11" style="stroke:#A80036;stroke-width:1.0;"/><path d="M612.9375,457.0859 L615.6094,453.9141 C616.2031,453.8984 616.5781,453.6016 616.5781,453.0703 C616.5781,452.8047 616.4531,452.5391 616.2188,452.3672 C616.0469,452.2578 615.9063,452.2266 615.4531,452.2266 L613.9219,452.2266 C613.5469,452.2266 613.2813,452.2734 613.1406,452.3984 C612.9219,452.5391 612.7813,452.8203 612.7813,453.0703 C612.7813,453.4453 612.9531,453.6641 613.4375,453.8984 L611.8438,455.7578 L610.2344,453.8984 C610.7344,453.6641 610.875,453.4453 610.875,453.0703 C610.875,452.8047 610.75,452.5391 610.5313,452.3672 C610.3594,452.2578 610.2188,452.2266 609.7344,452.2266 L608.1875,452.2266 C608.0781,452.2266 608.0625,452.2266 607.8594,452.2578 C607.3594,452.3047 607.0781,452.6172 607.0781,453.0703 C607.0781,453.5859 607.4375,453.8828 608.0625,453.9141 L610.75,457.0703 L607.9219,460.4297 C607.2969,460.4297 606.9219,460.7578 606.9219,461.2891 C606.9219,461.5547 607.0625,461.8047 607.2813,461.9766 C607.4375,462.0859 607.6406,462.1328 608.0469,462.1328 L609.9219,462.1328 C610.2813,462.1328 610.5,462.1016 610.6406,462.0078 C610.8906,461.8672 611.0469,461.5703 611.0469,461.2891 C611.0469,460.7734 610.7188,460.4609 610.1406,460.4297 L611.8594,458.3984 L613.5781,460.4297 C612.9844,460.4609 612.6563,460.7734 612.6563,461.2891 C612.6563,461.8516 613.0156,462.1328 613.7656,462.1328 L615.6563,462.1328 C616.0156,462.1328 616.2344,462.1016 616.375,462.0078 C616.625,461.8672 616.7813,461.5703 616.7813,461.2891 C616.7813,460.7578 616.4219,460.4453 615.7813,460.4297 L612.9375,457.0859 Z " fill="#000000"/><text fill="#000000" font-family="sans-serif" font-size="12" font-style="italic" lengthAdjust="spacing" textLength="72" x="669.25" y="453.1387">«extension»</text><text fill="#000000" font-family="sans-serif" font-size="14" lengthAdjust="spacing" textLength="146" x="632.25" y="468.9639">AgoraRtmController</text><line style="stroke:#181818;stroke-width:0.5;" x1="517.5" x2="860.5" y1="477.2656" y2="477.2656"/><ellipse cx="527.5" cy="488.2656" fill="#84BE84" rx="3" ry="3" style="stroke:#038048;stroke-width:1.0;"/><text fill="#000000" font-family="sans-serif" font-size="14" lengthAdjust="spacing" textLength="271" x="536.5" y="494.2607">rtmKit(_:peersOnlineStatusChanged:)</text><ellipse cx="527.5" cy="504.5625" fill="#84BE84" rx="3" ry="3" style="stroke:#038048;stroke-width:1.0;"/><text fill="#000000" font-family="sans-serif" font-size="14" lengthAdjust="spacing" textLength="298" x="536.5" y="510.5576">rtmKit(_:fileMessageReceived:fromPeer:)</text><ellipse cx="527.5" cy="520.8594" fill="#84BE84" rx="3" ry="3" style="stroke:#038048;stroke-width:1.0;"/><text fill="#000000" font-family="sans-serif" font-size="14" lengthAdjust="spacing" textLength="319" x="536.5" y="526.8545">rtmKit(_:imageMessageReceived:fromPeer:)</text><ellipse cx="527.5" cy="537.1563" fill="#84BE84" rx="3" ry="3" style="stroke:#038048;stroke-width:1.0;"/><text fill="#000000" font-family="sans-serif" font-size="14" lengthAdjust="spacing" textLength="256" x="536.5" y="543.1514">rtmKit(_:media:uploadingProgress:)</text><ellipse cx="527.5" cy="553.4531" fill="#84BE84" rx="3" ry="3" style="stroke:#038048;stroke-width:1.0;"/><text fill="#000000" font-family="sans-serif" font-size="14" lengthAdjust="spacing" textLength="276" x="536.5" y="559.4482">rtmKit(_:media:downloadingProgress:)</text><ellipse cx="527.5" cy="569.75" fill="#84BE84" rx="3" ry="3" style="stroke:#038048;stroke-width:1.0;"/><text fill="#000000" font-family="sans-serif" font-size="14" lengthAdjust="spacing" textLength="312" x="536.5" y="575.7451">rtmKit(_:connectionStateChanged:reason:)</text></g><!--MD5=[e69471b078b5477141ff3a2cb45c0cf9]
class AgoraRtmController0--><g id="elem_AgoraRtmController0"><rect codeLine="14" fill="#F1F1F1" height="129.75" id="AgoraRtmController0" rx="2.5" ry="2.5" style="stroke:#181818;stroke-width:0.5;" width="320" x="7" y="721"/><ellipse cx="89.75" cy="741.1328" fill="#DA70D6" rx="11" ry="11" style="stroke:#A80036;stroke-width:1.0;"/><path d="M90.9375,741.0859 L93.6094,737.9141 C94.2031,737.8984 94.5781,737.6016 94.5781,737.0703 C94.5781,736.8047 94.4531,736.5391 94.2188,736.3672 C94.0469,736.2578 93.9063,736.2266 93.4531,736.2266 L91.9219,736.2266 C91.5469,736.2266 91.2813,736.2734 91.1406,736.3984 C90.9219,736.5391 90.7813,736.8203 90.7813,737.0703 C90.7813,737.4453 90.9531,737.6641 91.4375,737.8984 L89.8438,739.7578 L88.2344,737.8984 C88.7344,737.6641 88.875,737.4453 88.875,737.0703 C88.875,736.8047 88.75,736.5391 88.5313,736.3672 C88.3594,736.2578 88.2188,736.2266 87.7344,736.2266 L86.1875,736.2266 C86.0781,736.2266 86.0625,736.2266 85.8594,736.2578 C85.3594,736.3047 85.0781,736.6172 85.0781,737.0703 C85.0781,737.5859 85.4375,737.8828 86.0625,737.9141 L88.75,741.0703 L85.9219,744.4297 C85.2969,744.4297 84.9219,744.7578 84.9219,745.2891 C84.9219,745.5547 85.0625,745.8047 85.2813,745.9766 C85.4375,746.0859 85.6406,746.1328 86.0469,746.1328 L87.9219,746.1328 C88.2813,746.1328 88.5,746.1016 88.6406,746.0078 C88.8906,745.8672 89.0469,745.5703 89.0469,745.2891 C89.0469,744.7734 88.7188,744.4609 88.1406,744.4297 L89.8594,742.3984 L91.5781,744.4297 C90.9844,744.4609 90.6563,744.7734 90.6563,745.2891 C90.6563,745.8516 91.0156,746.1328 91.7656,746.1328 L93.6563,746.1328 C94.0156,746.1328 94.2344,746.1016 94.375,746.0078 C94.625,745.8672 94.7813,745.5703 94.7813,745.2891 C94.7813,744.7578 94.4219,744.4453 93.7813,744.4297 L90.9375,741.0859 Z " fill="#000000"/><text fill="#000000" font-family="sans-serif" font-size="12" font-style="italic" lengthAdjust="spacing" textLength="72" x="147.25" y="737.1387">«extension»</text><text fill="#000000" font-family="sans-serif" font-size="14" lengthAdjust="spacing" textLength="146" x="110.25" y="752.9639">AgoraRtmController</text><line style="stroke:#181818;stroke-width:0.5;" x1="8" x2="326" y1="761.2656" y2="761.2656"/><ellipse cx="18" cy="772.2656" fill="#84BE84" rx="3" ry="3" style="stroke:#038048;stroke-width:1.0;"/><text fill="#000000" font-family="sans-serif" font-size="14" lengthAdjust="spacing" textLength="188" x="27" y="778.2607">channel(_:memberCount:)</text><ellipse cx="18" cy="788.5625" fill="#84BE84" rx="3" ry="3" style="stroke:#038048;stroke-width:1.0;"/><text fill="#000000" font-family="sans-serif" font-size="14" lengthAdjust="spacing" textLength="175" x="27" y="794.5576">channel(_:memberLeft:)</text><ellipse cx="18" cy="804.8594" fill="#84BE84" rx="3" ry="3" style="stroke:#038048;stroke-width:1.0;"/><text fill="#000000" font-family="sans-serif" font-size="14" lengthAdjust="spacing" textLength="201" x="27" y="810.8545">channel(_:attributeUpdate:)</text><ellipse cx="18" cy="821.1563" fill="#84BE84" rx="3" ry="3" style="stroke:#038048;stroke-width:1.0;"/><text fill="#000000" font-family="sans-serif" font-size="14" lengthAdjust="spacing" textLength="273" x="27" y="827.1514">channel(_:fileMessageReceived:from:)</text><ellipse cx="18" cy="837.4531" fill="#84BE84" rx="3" ry="3" style="stroke:#038048;stroke-width:1.0;"/><text fill="#000000" font-family="sans-serif" font-size="14" lengthAdjust="spacing" textLength="294" x="27" y="843.4482">channel(_:imageMessageReceived:from:)</text></g><!--MD5=[cde66f9ef39c39113dc02f29e05822cf]
class AgoraRtmController1--><g id="elem_AgoraRtmController1"><rect codeLine="21" fill="#F1F1F1" height="129.75" id="AgoraRtmController1" rx="2.5" ry="2.5" style="stroke:#181818;stroke-width:0.5;" width="303" x="362.5" y="721"/><ellipse cx="436.75" cy="741.1328" fill="#DA70D6" rx="11" ry="11" style="stroke:#A80036;stroke-width:1.0;"/><path d="M437.9375,741.0859 L440.6094,737.9141 C441.2031,737.8984 441.5781,737.6016 441.5781,737.0703 C441.5781,736.8047 441.4531,736.5391 441.2188,736.3672 C441.0469,736.2578 440.9063,736.2266 440.4531,736.2266 L438.9219,736.2266 C438.5469,736.2266 438.2813,736.2734 438.1406,736.3984 C437.9219,736.5391 437.7813,736.8203 437.7813,737.0703 C437.7813,737.4453 437.9531,737.6641 438.4375,737.8984 L436.8438,739.7578 L435.2344,737.8984 C435.7344,737.6641 435.875,737.4453 435.875,737.0703 C435.875,736.8047 435.75,736.5391 435.5313,736.3672 C435.3594,736.2578 435.2188,736.2266 434.7344,736.2266 L433.1875,736.2266 C433.0781,736.2266 433.0625,736.2266 432.8594,736.2578 C432.3594,736.3047 432.0781,736.6172 432.0781,737.0703 C432.0781,737.5859 432.4375,737.8828 433.0625,737.9141 L435.75,741.0703 L432.9219,744.4297 C432.2969,744.4297 431.9219,744.7578 431.9219,745.2891 C431.9219,745.5547 432.0625,745.8047 432.2813,745.9766 C432.4375,746.0859 432.6406,746.1328 433.0469,746.1328 L434.9219,746.1328 C435.2813,746.1328 435.5,746.1016 435.6406,746.0078 C435.8906,745.8672 436.0469,745.5703 436.0469,745.2891 C436.0469,744.7734 435.7188,744.4609 435.1406,744.4297 L436.8594,742.3984 L438.5781,744.4297 C437.9844,744.4609 437.6563,744.7734 437.6563,745.2891 C437.6563,745.8516 438.0156,746.1328 438.7656,746.1328 L440.6563,746.1328 C441.0156,746.1328 441.2344,746.1016 441.375,746.0078 C441.625,745.8672 441.7813,745.5703 441.7813,745.2891 C441.7813,744.7578 441.4219,744.4453 440.7813,744.4297 L437.9375,741.0859 Z " fill="#000000"/><text fill="#000000" font-family="sans-serif" font-size="12" font-style="italic" lengthAdjust="spacing" textLength="72" x="494.25" y="737.1387">«extension»</text><text fill="#000000" font-family="sans-serif" font-size="14" lengthAdjust="spacing" textLength="146" x="457.25" y="752.9639">AgoraRtmController</text><line style="stroke:#181818;stroke-width:0.5;" x1="363.5" x2="664.5" y1="761.2656" y2="761.2656"/><ellipse cx="373.5" cy="772.2656" fill="#84BE84" rx="3" ry="3" style="stroke:#038048;stroke-width:1.0;"/><text fill="#000000" font-family="sans-serif" font-size="14" lengthAdjust="spacing" textLength="185" x="382.5" y="778.2607">rtmKitTokenDidExpire(_:)</text><ellipse cx="373.5" cy="788.5625" fill="#84BE84" rx="3" ry="3" style="stroke:#038048;stroke-width:1.0;"/><text fill="#000000" font-family="sans-serif" font-size="14" lengthAdjust="spacing" textLength="277" x="382.5" y="794.5576">rtmKit(_:messageReceived:fromPeer:)</text><ellipse cx="373.5" cy="804.8594" fill="#84BE84" rx="3" ry="3" style="stroke:#038048;stroke-width:1.0;"/><text fill="#000000" font-family="sans-serif" font-size="14" lengthAdjust="spacing" textLength="189" x="382.5" y="810.8545">channel(_:memberJoined:)</text><ellipse cx="373.5" cy="821.1563" fill="#84BE84" rx="3" ry="3" style="stroke:#038048;stroke-width:1.0;"/><text fill="#000000" font-family="sans-serif" font-size="14" lengthAdjust="spacing" textLength="252" x="382.5" y="827.1514">channel(_:messageReceived:from:)</text><ellipse cx="373.5" cy="837.4531" fill="#84BE84" rx="3" ry="3" style="stroke:#038048;stroke-width:1.0;"/><text fill="#000000" font-family="sans-serif" font-size="14" lengthAdjust="spacing" textLength="232" x="382.5" y="843.4482">decodeMessage(message:from:)</text></g><!--MD5=[6c78f5bbb5bd9018c92284fda59536f9]
class AgoraRtmController2--><g id="elem_AgoraRtmController2"><rect codeLine="28" fill="#F1F1F1" height="129.75" id="AgoraRtmController2" rx="2.5" ry="2.5" style="stroke:#181818;stroke-width:0.5;" width="328" x="701" y="721"/><ellipse cx="787.75" cy="741.1328" fill="#DA70D6" rx="11" ry="11" style="stroke:#A80036;stroke-width:1.0;"/><path d="M788.9375,741.0859 L791.6094,737.9141 C792.2031,737.8984 792.5781,737.6016 792.5781,737.0703 C792.5781,736.8047 792.4531,736.5391 792.2188,736.3672 C792.0469,736.2578 791.9063,736.2266 791.4531,736.2266 L789.9219,736.2266 C789.5469,736.2266 789.2813,736.2734 789.1406,736.3984 C788.9219,736.5391 788.7813,736.8203 788.7813,737.0703 C788.7813,737.4453 788.9531,737.6641 789.4375,737.8984 L787.8438,739.7578 L786.2344,737.8984 C786.7344,737.6641 786.875,737.4453 786.875,737.0703 C786.875,736.8047 786.75,736.5391 786.5313,736.3672 C786.3594,736.2578 786.2188,736.2266 785.7344,736.2266 L784.1875,736.2266 C784.0781,736.2266 784.0625,736.2266 783.8594,736.2578 C783.3594,736.3047 783.0781,736.6172 783.0781,737.0703 C783.0781,737.5859 783.4375,737.8828 784.0625,737.9141 L786.75,741.0703 L783.9219,744.4297 C783.2969,744.4297 782.9219,744.7578 782.9219,745.2891 C782.9219,745.5547 783.0625,745.8047 783.2813,745.9766 C783.4375,746.0859 783.6406,746.1328 784.0469,746.1328 L785.9219,746.1328 C786.2813,746.1328 786.5,746.1016 786.6406,746.0078 C786.8906,745.8672 787.0469,745.5703 787.0469,745.2891 C787.0469,744.7734 786.7188,744.4609 786.1406,744.4297 L787.8594,742.3984 L789.5781,744.4297 C788.9844,744.4609 788.6563,744.7734 788.6563,745.2891 C788.6563,745.8516 789.0156,746.1328 789.7656,746.1328 L791.6563,746.1328 C792.0156,746.1328 792.2344,746.1016 792.375,746.0078 C792.625,745.8672 792.7813,745.5703 792.7813,745.2891 C792.7813,744.7578 792.4219,744.4453 791.7813,744.4297 L788.9375,741.0859 Z " fill="#000000"/><text fill="#000000" font-family="sans-serif" font-size="12" font-style="italic" lengthAdjust="spacing" textLength="72" x="845.25" y="737.1387">«extension»</text><text fill="#000000" font-family="sans-serif" font-size="14" lengthAdjust="spacing" textLength="146" x="808.25" y="752.9639">AgoraRtmController</text><line style="stroke:#181818;stroke-width:0.5;" x1="702" x2="1028" y1="761.2656" y2="761.2656"/><ellipse cx="712" cy="772.2656" fill="#84BE84" rx="3" ry="3" style="stroke:#038048;stroke-width:1.0;"/><text fill="#000000" font-family="sans-serif" font-size="14" lengthAdjust="spacing" textLength="296" x="721" y="778.2607">sendCodable(message:channel:callback:)</text><ellipse cx="712" cy="788.5625" fill="#84BE84" rx="3" ry="3" style="stroke:#038048;stroke-width:1.0;"/><text fill="#000000" font-family="sans-serif" font-size="14" lengthAdjust="spacing" text-decoration="underline" textLength="189" x="721" y="794.5576">createRtmMessage(from:)</text><ellipse cx="712" cy="804.8594" fill="#84BE84" rx="3" ry="3" style="stroke:#038048;stroke-width:1.0;"/><text fill="#000000" font-family="sans-serif" font-size="14" lengthAdjust="spacing" textLength="296" x="721" y="810.8545">sendCodable(message:channel:callback:)</text><ellipse cx="712" cy="821.1563" fill="#84BE84" rx="3" ry="3" style="stroke:#038048;stroke-width:1.0;"/><text fill="#000000" font-family="sans-serif" font-size="14" lengthAdjust="spacing" textLength="302" x="721" y="827.1514">sendCodable(message:member:callback:)</text><ellipse cx="712" cy="837.4531" fill="#84BE84" rx="3" ry="3" style="stroke:#038048;stroke-width:1.0;"/><text fill="#000000" font-family="sans-serif" font-size="14" lengthAdjust="spacing" textLength="270" x="721" y="843.4482">sendCodable(message:user:callback:)</text></g><!--MD5=[3288884b32553d1f6905e709f6bbafdf]
class AgoraRtmController3--><g id="elem_AgoraRtmController3"><rect codeLine="35" fill="#F1F1F1" height="97.1563" id="AgoraRtmController3" rx="2.5" ry="2.5" style="stroke:#181818;stroke-width:0.5;" width="320" x="1064" y="737.5"/><ellipse cx="1146.75" cy="757.6328" fill="#DA70D6" rx="11" ry="11" style="stroke:#A80036;stroke-width:1.0;"/><path d="M1147.9375,757.5859 L1150.6094,754.4141 C1151.2031,754.3984 1151.5781,754.1016 1151.5781,753.5703 C1151.5781,753.3047 1151.4531,753.0391 1151.2188,752.8672 C1151.0469,752.7578 1150.9063,752.7266 1150.4531,752.7266 L1148.9219,752.7266 C1148.5469,752.7266 1148.2813,752.7734 1148.1406,752.8984 C1147.9219,753.0391 1147.7813,753.3203 1147.7813,753.5703 C1147.7813,753.9453 1147.9531,754.1641 1148.4375,754.3984 L1146.8438,756.2578 L1145.2344,754.3984 C1145.7344,754.1641 1145.875,753.9453 1145.875,753.5703 C1145.875,753.3047 1145.75,753.0391 1145.5313,752.8672 C1145.3594,752.7578 1145.2188,752.7266 1144.7344,752.7266 L1143.1875,752.7266 C1143.0781,752.7266 1143.0625,752.7266 1142.8594,752.7578 C1142.3594,752.8047 1142.0781,753.1172 1142.0781,753.5703 C1142.0781,754.0859 1142.4375,754.3828 1143.0625,754.4141 L1145.75,757.5703 L1142.9219,760.9297 C1142.2969,760.9297 1141.9219,761.2578 1141.9219,761.7891 C1141.9219,762.0547 1142.0625,762.3047 1142.2813,762.4766 C1142.4375,762.5859 1142.6406,762.6328 1143.0469,762.6328 L1144.9219,762.6328 C1145.2813,762.6328 1145.5,762.6016 1145.6406,762.5078 C1145.8906,762.3672 1146.0469,762.0703 1146.0469,761.7891 C1146.0469,761.2734 1145.7188,760.9609 1145.1406,760.9297 L1146.8594,758.8984 L1148.5781,760.9297 C1147.9844,760.9609 1147.6563,761.2734 1147.6563,761.7891 C1147.6563,762.3516 1148.0156,762.6328 1148.7656,762.6328 L1150.6563,762.6328 C1151.0156,762.6328 1151.2344,762.6016 1151.375,762.5078 C1151.625,762.3672 1151.7813,762.0703 1151.7813,761.7891 C1151.7813,761.2578 1151.4219,760.9453 1150.7813,760.9297 L1147.9375,757.5859 Z " fill="#000000"/><text fill="#000000" font-family="sans-serif" font-size="12" font-style="italic" lengthAdjust="spacing" textLength="72" x="1204.25" y="753.6387">«extension»</text><text fill="#000000" font-family="sans-serif" font-size="14" lengthAdjust="spacing" textLength="146" x="1167.25" y="769.4639">AgoraRtmController</text><line style="stroke:#181818;stroke-width:0.5;" x1="1065" x2="1383" y1="777.7656" y2="777.7656"/><ellipse cx="1075" cy="788.7656" fill="#84BE84" rx="3" ry="3" style="stroke:#038048;stroke-width:1.0;"/><text fill="#000000" font-family="sans-serif" font-size="14" lengthAdjust="spacing" text-decoration="underline" textLength="294" x="1084" y="794.7607">fetchRtmToken(urlBase:userId:callback:)</text><text fill="#000000" font-family="sans-serif" font-size="14" lengthAdjust="spacing" textLength="189" x="1084" y="811.0576">newTokenFetched(result:)</text><text fill="#000000" font-family="sans-serif" font-size="14" lengthAdjust="spacing" textLength="118" x="1084" y="827.3545">updateToken(_:)</text></g><!--MD5=[0bf4399bc7993929f7706d58087a7127]
class RtmControllerDelegate--><g id="elem_RtmControllerDelegate"><rect codeLine="40" fill="#F1F1F1" height="268.125" id="RtmControllerDelegate" rx="2.5" ry="2.5" style="stroke:#181818;stroke-width:0.5;" width="394" x="897" y="376"/><ellipse cx="1004.75" cy="396.1328" fill="#DAA520" rx="11" ry="11" style="stroke:#A80036;stroke-width:1.0;"/><path d="M1004.2969,397.7266 L1005.9688,397.7266 C1007.5469,397.7266 1008.3906,397.4453 1009.1406,396.6172 C1009.6875,396.0234 1010,395.2109 1010,394.4297 C1010,392.5547 1008.4688,391.2266 1006.2969,391.2266 L1002.3438,391.2266 C1001.9063,391.2266 1001.7813,391.2422 1001.625,391.3359 C1001.375,391.4922 1001.2188,391.7891 1001.2188,392.0703 C1001.2188,392.3203 1001.3594,392.6016 1001.5781,392.7734 C1001.7344,392.8828 1001.9219,392.9141 1002.3438,392.9141 L1002.5938,392.9141 L1002.5938,399.4297 L1002.3438,399.4297 C1001.9375,399.4297 1001.7813,399.4453 1001.625,399.5547 C1001.375,399.7109 1001.2188,399.9922 1001.2188,400.2891 C1001.2188,400.5391 1001.3594,400.8047 1001.5781,400.9609 C1001.7188,401.0859 1001.9531,401.1328 1002.3438,401.1328 L1005.9844,401.1328 C1006.3281,401.1328 1006.5781,401.0859 1006.6875,401.0078 C1006.9531,400.8672 1007.1094,400.5703 1007.1094,400.2891 C1007.1094,400.0078 1006.9688,399.7578 1006.75,399.5859 C1006.5781,399.4609 1006.4375,399.4297 1005.9844,399.4297 L1004.2969,399.4297 L1004.2969,397.7266 Z M1004.2969,392.9141 L1006.2969,392.9141 C1007.4844,392.9141 1008.1875,393.5234 1008.1875,394.4922 C1008.1875,395.4453 1007.4844,396.0391 1006.2969,396.0391 L1004.2969,396.0391 L1004.2969,392.9141 Z " fill="#000000"/><text fill="#000000" font-family="sans-serif" font-size="12" font-style="italic" lengthAdjust="spacing" textLength="63" x="1078.75" y="392.1387">«protocol»</text><text fill="#000000" font-family="sans-serif" font-size="14" lengthAdjust="spacing" textLength="170" x="1025.25" y="407.9639">RtmControllerDelegate</text><line style="stroke:#181818;stroke-width:0.5;" x1="898" x2="1290" y1="416.2656" y2="416.2656"/><ellipse cx="908" cy="427.2656" fill="none" rx="3" ry="3" style="stroke:#038048;stroke-width:1.0;"/><text fill="#000000" font-family="sans-serif" font-size="14" lengthAdjust="spacing" textLength="179" x="917" y="433.2607">rtcLookup : [UInt: String]</text><ellipse cx="908" cy="443.5625" fill="none" rx="3" ry="3" style="stroke:#038048;stroke-width:1.0;"/><text fill="#000000" font-family="sans-serif" font-size="14" lengthAdjust="spacing" textLength="215" x="917" y="449.5576">rtmLookup : [String: Codable]</text><ellipse cx="908" cy="459.8594" fill="none" rx="3" ry="3" style="stroke:#038048;stroke-width:1.0;"/><text fill="#000000" font-family="sans-serif" font-size="14" lengthAdjust="spacing" textLength="252" x="917" y="465.8545">rtmDelegate : AgoraRtmDelegate?</text><ellipse cx="908" cy="476.1563" fill="none" rx="3" ry="3" style="stroke:#038048;stroke-width:1.0;"/><text fill="#000000" font-family="sans-serif" font-size="14" lengthAdjust="spacing" textLength="368" x="917" y="482.1514">rtmChannelDelegate : AgoraRtmChannelDelegate?</text><ellipse cx="908" cy="492.4531" fill="none" rx="3" ry="3" style="stroke:#038048;stroke-width:1.0;"/><text fill="#000000" font-family="sans-serif" font-size="14" lengthAdjust="spacing" textLength="97" x="917" y="498.4482">rtmId : String</text><ellipse cx="908" cy="508.75" fill="none" rx="3" ry="3" style="stroke:#038048;stroke-width:1.0;"/><text fill="#000000" font-family="sans-serif" font-size="14" lengthAdjust="spacing" textLength="83" x="917" y="514.7451">rtcId : UInt?</text><ellipse cx="908" cy="525.0469" fill="none" rx="3" ry="3" style="stroke:#038048;stroke-width:1.0;"/><text fill="#000000" font-family="sans-serif" font-size="14" lengthAdjust="spacing" textLength="98" x="917" y="531.042">appId : String</text><ellipse cx="908" cy="541.3438" fill="none" rx="3" ry="3" style="stroke:#038048;stroke-width:1.0;"/><text fill="#000000" font-family="sans-serif" font-size="14" lengthAdjust="spacing" textLength="136" x="917" y="547.3389">rtmToken : String?</text><ellipse cx="908" cy="557.6406" fill="none" rx="3" ry="3" style="stroke:#038048;stroke-width:1.0;"/><text fill="#000000" font-family="sans-serif" font-size="14" lengthAdjust="spacing" textLength="134" x="917" y="563.6357">tokenURL : String?</text><line style="stroke:#181818;stroke-width:0.5;" x1="898" x2="1290" y1="570.9375" y2="570.9375"/><ellipse cx="908" cy="581.9375" fill="#84BE84" rx="3" ry="3" style="stroke:#038048;stroke-width:1.0;"/><text fill="#000000" font-family="sans-serif" font-size="14" lengthAdjust="spacing" textLength="285" x="917" y="587.9326">rtmChannelJoined(name:channel:code:)</text><ellipse cx="908" cy="598.2344" fill="#84BE84" rx="3" ry="3" style="stroke:#038048;stroke-width:1.0;"/><text fill="#000000" font-family="sans-serif" font-size="14" lengthAdjust="spacing" textLength="189" x="917" y="604.2295">channel(_:memberJoined:)</text><ellipse cx="908" cy="614.5313" fill="#84BE84" rx="3" ry="3" style="stroke:#038048;stroke-width:1.0;"/><text fill="#000000" font-family="sans-serif" font-size="14" lengthAdjust="spacing" textLength="232" x="917" y="620.5264">decodeMessage(message:from:)</text><ellipse cx="908" cy="630.8281" fill="#84BE84" rx="3" ry="3" style="stroke:#038048;stroke-width:1.0;"/><text fill="#000000" font-family="sans-serif" font-size="14" lengthAdjust="spacing" textLength="201" x="917" y="636.8232">rtmStateChanged(from:to:)</text></g><!--MD5=[8a8c04e443b5d2273f8be74227abd1e8]
class AgoraRtmController4--><g id="elem_AgoraRtmController4"><rect codeLine="55" fill="#F1F1F1" height="292.4531" id="AgoraRtmController4" rx="2.5" ry="2.5" style="stroke:#181818;stroke-width:0.5;" width="394" x="1183" y="7"/><ellipse cx="1302.75" cy="23" fill="#8FBC8F" rx="11" ry="11" style="stroke:#A80036;stroke-width:1.0;"/><path d="M1305.0938,18.6719 C1304.1563,18.2344 1303.5625,18.0938 1302.6875,18.0938 C1300.0625,18.0938 1298.0625,20.1719 1298.0625,22.8906 L1298.0625,24.0156 C1298.0625,26.5938 1300.1719,28.4844 1303.0625,28.4844 C1304.2813,28.4844 1305.4375,28.1875 1306.1875,27.6406 C1306.7656,27.2344 1307.0938,26.7813 1307.0938,26.3906 C1307.0938,25.9375 1306.7031,25.5469 1306.2344,25.5469 C1306.0156,25.5469 1305.8125,25.625 1305.625,25.8125 C1305.1719,26.2969 1305.1719,26.2969 1304.9844,26.3906 C1304.5625,26.6563 1303.875,26.7813 1303.1094,26.7813 C1301.0625,26.7813 1299.7656,25.6875 1299.7656,23.9844 L1299.7656,22.8906 C1299.7656,21.1094 1301.0156,19.7969 1302.75,19.7969 C1303.3281,19.7969 1303.9375,19.9531 1304.4063,20.2031 C1304.8906,20.4844 1305.0625,20.7031 1305.1563,21.1094 C1305.2188,21.5156 1305.25,21.6406 1305.3906,21.7656 C1305.5313,21.9063 1305.7656,22.0156 1305.9844,22.0156 C1306.25,22.0156 1306.5156,21.875 1306.6875,21.6563 C1306.7969,21.5 1306.8281,21.3125 1306.8281,20.8906 L1306.8281,19.4688 C1306.8281,19.0313 1306.8125,18.9063 1306.7188,18.75 C1306.5625,18.4844 1306.2813,18.3438 1305.9844,18.3438 C1305.6875,18.3438 1305.4844,18.4375 1305.2656,18.75 L1305.0938,18.6719 Z " fill="#000000"/><text fill="#000000" font-family="sans-serif" font-size="14" lengthAdjust="spacing" textLength="146" x="1323.25" y="27.8467">AgoraRtmController</text><line style="stroke:#181818;stroke-width:0.5;" x1="1184" x2="1576" y1="39" y2="39"/><ellipse cx="1194" cy="50" fill="none" rx="3" ry="3" style="stroke:#038048;stroke-width:1.0;"/><text fill="#000000" font-family="sans-serif" font-size="14" lengthAdjust="spacing" text-decoration="underline" textLength="158" x="1203" y="55.9951">printLevel : PrintType</text><polygon fill="none" points="1194,62.2969,1190,68.2969,1198,68.2969" style="stroke:#1963A0;stroke-width:1.0;"/><text fill="#000000" font-family="sans-serif" font-size="14" lengthAdjust="spacing" textLength="252" x="1203" y="72.292">rtmDelegate : AgoraRtmDelegate?</text><polygon fill="none" points="1194,78.5938,1190,84.5938,1198,84.5938" style="stroke:#1963A0;stroke-width:1.0;"/><text fill="#000000" font-family="sans-serif" font-size="14" lengthAdjust="spacing" textLength="368" x="1203" y="88.5889">rtmChannelDelegate : AgoraRtmChannelDelegate?</text><polygon fill="none" points="1194,94.8906,1190,100.8906,1198,100.8906" style="stroke:#1963A0;stroke-width:1.0;"/><text fill="#000000" font-family="sans-serif" font-size="14" lengthAdjust="spacing" textLength="252" x="1203" y="104.8857">delegate : RtmControllerDelegate!</text><ellipse cx="1194" cy="115.1875" fill="none" rx="3" ry="3" style="stroke:#038048;stroke-width:1.0;"/><text fill="#000000" font-family="sans-serif" font-size="14" lengthAdjust="spacing" textLength="163" x="1203" y="121.1826">rtmStatus : RTMStatus</text><ellipse cx="1194" cy="131.4844" fill="none" rx="3" ry="3" style="stroke:#038048;stroke-width:1.0;"/><text fill="#000000" font-family="sans-serif" font-size="14" lengthAdjust="spacing" textLength="155" x="1203" y="137.4795">rtmKit : AgoraRtmKit</text><ellipse cx="1194" cy="147.7813" fill="none" rx="3" ry="3" style="stroke:#038048;stroke-width:1.0;"/><text fill="#000000" font-family="sans-serif" font-size="14" lengthAdjust="spacing" textLength="270" x="1203" y="153.7764">channels : [String: AgoraRtmChannel]</text><line style="stroke:#181818;stroke-width:0.5;" x1="1184" x2="1576" y1="161.0781" y2="161.0781"/><polygon fill="#4177AF" points="1194,168.0781,1190,174.0781,1198,174.0781" style="stroke:#1963A0;stroke-width:1.0;"/><text fill="#000000" font-family="sans-serif" font-size="14" lengthAdjust="spacing" text-decoration="underline" textLength="165" x="1203" y="178.0732">agoraPrint(_:message:)</text><ellipse cx="1194" cy="188.375" fill="#84BE84" rx="3" ry="3" style="stroke:#038048;stroke-width:1.0;"/><text fill="#000000" font-family="sans-serif" font-size="14" lengthAdjust="spacing" textLength="207" x="1203" y="194.3701">afterLoginSteps : [() -&gt; Void]</text><ellipse cx="1194" cy="204.6719" fill="#84BE84" rx="3" ry="3" style="stroke:#038048;stroke-width:1.0;"/><text fill="#000000" font-family="sans-serif" font-size="14" lengthAdjust="spacing" textLength="103" x="1203" y="210.667">init(delegate:)</text><polygon fill="#4177AF" points="1194,216.9688,1190,222.9688,1198,222.9688" style="stroke:#1963A0;stroke-width:1.0;"/><text fill="#000000" font-family="sans-serif" font-size="14" lengthAdjust="spacing" textLength="164" x="1203" y="226.9639">rtmLogin(completion:)</text><ellipse cx="1194" cy="237.2656" fill="#84BE84" rx="3" ry="3" style="stroke:#038048;stroke-width:1.0;"/><text fill="#000000" font-family="sans-serif" font-size="14" lengthAdjust="spacing" textLength="143" x="1203" y="243.2607">rtmLoggedIn(code:)</text><ellipse cx="1194" cy="253.5625" fill="#84BE84" rx="3" ry="3" style="stroke:#038048;stroke-width:1.0;"/><text fill="#000000" font-family="sans-serif" font-size="14" lengthAdjust="spacing" textLength="212" x="1203" y="259.5576">joinChannel(named:callback:)</text><ellipse cx="1194" cy="269.8594" fill="#84BE84" rx="3" ry="3" style="stroke:#038048;stroke-width:1.0;"/><text fill="#000000" font-family="sans-serif" font-size="14" lengthAdjust="spacing" textLength="160" x="1203" y="275.8545">leaveChannel(named:)</text><ellipse cx="1194" cy="286.1563" fill="#84BE84" rx="3" ry="3" style="stroke:#038048;stroke-width:1.0;"/><text fill="#000000" font-family="sans-serif" font-size="14" lengthAdjust="spacing" textLength="285" x="1203" y="292.1514">rtmChannelJoined(name:channel:code:)</text></g><!--MD5=[95031495068c11df337a865787cbaf33]
class AgoraRtmDelegate--><g id="elem_AgoraRtmDelegate"><rect fill="#F1F1F1" height="32" id="AgoraRtmDelegate" rx="2.5" ry="2.5" style="stroke:#181818;stroke-width:0.5;" width="171" x="368.5" y="137"/><ellipse cx="383.5" cy="153" fill="#ADD1B2" rx="11" ry="11" style="stroke:#181818;stroke-width:1.0;"/><path d="M385.8438,148.6719 C384.9063,148.2344 384.3125,148.0938 383.4375,148.0938 C380.8125,148.0938 378.8125,150.1719 378.8125,152.8906 L378.8125,154.0156 C378.8125,156.5938 380.9219,158.4844 383.8125,158.4844 C385.0313,158.4844 386.1875,158.1875 386.9375,157.6406 C387.5156,157.2344 387.8438,156.7813 387.8438,156.3906 C387.8438,155.9375 387.4531,155.5469 386.9844,155.5469 C386.7656,155.5469 386.5625,155.625 386.375,155.8125 C385.9219,156.2969 385.9219,156.2969 385.7344,156.3906 C385.3125,156.6563 384.625,156.7813 383.8594,156.7813 C381.8125,156.7813 380.5156,155.6875 380.5156,153.9844 L380.5156,152.8906 C380.5156,151.1094 381.7656,149.7969 383.5,149.7969 C384.0781,149.7969 384.6875,149.9531 385.1563,150.2031 C385.6406,150.4844 385.8125,150.7031 385.9063,151.1094 C385.9688,151.5156 386,151.6406 386.1406,151.7656 C386.2813,151.9063 386.5156,152.0156 386.7344,152.0156 C387,152.0156 387.2656,151.875 387.4375,151.6563 C387.5469,151.5 387.5781,151.3125 387.5781,150.8906 L387.5781,149.4688 C387.5781,149.0313 387.5625,148.9063 387.4688,148.75 C387.3125,148.4844 387.0313,148.3438 386.7344,148.3438 C386.4375,148.3438 386.2344,148.4375 386.0156,148.75 L385.8438,148.6719 Z " fill="#000000"/><text fill="#000000" font-family="sans-serif" font-size="14" lengthAdjust="spacing" textLength="139" x="397.5" y="157.8467">AgoraRtmDelegate</text></g><!--MD5=[cc9726e93fb9f2fe22c49f1bb2429833]
class AgoraRtmChannelDelegate--><g id="elem_AgoraRtmChannelDelegate"><rect fill="#F1F1F1" height="32" id="AgoraRtmChannelDelegate" rx="2.5" ry="2.5" style="stroke:#181818;stroke-width:0.5;" width="229" x="574.5" y="137"/><ellipse cx="589.5" cy="153" fill="#ADD1B2" rx="11" ry="11" style="stroke:#181818;stroke-width:1.0;"/><path d="M591.8438,148.6719 C590.9063,148.2344 590.3125,148.0938 589.4375,148.0938 C586.8125,148.0938 584.8125,150.1719 584.8125,152.8906 L584.8125,154.0156 C584.8125,156.5938 586.9219,158.4844 589.8125,158.4844 C591.0313,158.4844 592.1875,158.1875 592.9375,157.6406 C593.5156,157.2344 593.8438,156.7813 593.8438,156.3906 C593.8438,155.9375 593.4531,155.5469 592.9844,155.5469 C592.7656,155.5469 592.5625,155.625 592.375,155.8125 C591.9219,156.2969 591.9219,156.2969 591.7344,156.3906 C591.3125,156.6563 590.625,156.7813 589.8594,156.7813 C587.8125,156.7813 586.5156,155.6875 586.5156,153.9844 L586.5156,152.8906 C586.5156,151.1094 587.7656,149.7969 589.5,149.7969 C590.0781,149.7969 590.6875,149.9531 591.1563,150.2031 C591.6406,150.4844 591.8125,150.7031 591.9063,151.1094 C591.9688,151.5156 592,151.6406 592.1406,151.7656 C592.2813,151.9063 592.5156,152.0156 592.7344,152.0156 C593,152.0156 593.2656,151.875 593.4375,151.6563 C593.5469,151.5 593.5781,151.3125 593.5781,150.8906 L593.5781,149.4688 C593.5781,149.0313 593.5625,148.9063 593.4688,148.75 C593.3125,148.4844 593.0313,148.3438 592.7344,148.3438 C592.4375,148.3438 592.2344,148.4375 592.0156,148.75 L591.8438,148.6719 Z " fill="#000000"/><text fill="#000000" font-family="sans-serif" font-size="14" lengthAdjust="spacing" textLength="197" x="603.5" y="157.8467">AgoraRtmChannelDelegate</text></g><!--MD5=[625eb5fdd814536c712f9f96ffbf9401]
class AnyObject--><g id="elem_AnyObject"><rect fill="#F1F1F1" height="32" id="AnyObject" rx="2.5" ry="2.5" style="stroke:#181818;stroke-width:0.5;" width="108" x="1040" y="137"/><ellipse cx="1055" cy="153" fill="#ADD1B2" rx="11" ry="11" style="stroke:#181818;stroke-width:1.0;"/><path d="M1057.3438,148.6719 C1056.4063,148.2344 1055.8125,148.0938 1054.9375,148.0938 C1052.3125,148.0938 1050.3125,150.1719 1050.3125,152.8906 L1050.3125,154.0156 C1050.3125,156.5938 1052.4219,158.4844 1055.3125,158.4844 C1056.5313,158.4844 1057.6875,158.1875 1058.4375,157.6406 C1059.0156,157.2344 1059.3438,156.7813 1059.3438,156.3906 C1059.3438,155.9375 1058.9531,155.5469 1058.4844,155.5469 C1058.2656,155.5469 1058.0625,155.625 1057.875,155.8125 C1057.4219,156.2969 1057.4219,156.2969 1057.2344,156.3906 C1056.8125,156.6563 1056.125,156.7813 1055.3594,156.7813 C1053.3125,156.7813 1052.0156,155.6875 1052.0156,153.9844 L1052.0156,152.8906 C1052.0156,151.1094 1053.2656,149.7969 1055,149.7969 C1055.5781,149.7969 1056.1875,149.9531 1056.6563,150.2031 C1057.1406,150.4844 1057.3125,150.7031 1057.4063,151.1094 C1057.4688,151.5156 1057.5,151.6406 1057.6406,151.7656 C1057.7813,151.9063 1058.0156,152.0156 1058.2344,152.0156 C1058.5,152.0156 1058.7656,151.875 1058.9375,151.6563 C1059.0469,151.5 1059.0781,151.3125 1059.0781,150.8906 L1059.0781,149.4688 C1059.0781,149.0313 1059.0625,148.9063 1058.9688,148.75 C1058.8125,148.4844 1058.5313,148.3438 1058.2344,148.3438 C1057.9375,148.3438 1057.7344,148.4375 1057.5156,148.75 L1057.3438,148.6719 Z " fill="#000000"/><text fill="#000000" font-family="sans-serif" font-size="14" lengthAdjust="spacing" textLength="76" x="1069" y="157.8467">AnyObject</text></g><!--MD5=[0d4fb80341763a24143be61e75fdd318]
class NSObject--><g id="elem_NSObject"><rect fill="#F1F1F1" height="32" id="NSObject" rx="2.5" ry="2.5" style="stroke:#181818;stroke-width:0.5;" width="100" x="839" y="137"/><ellipse cx="854" cy="153" fill="#ADD1B2" rx="11" ry="11" style="stroke:#181818;stroke-width:1.0;"/><path d="M856.3438,148.6719 C855.4063,148.2344 854.8125,148.0938 853.9375,148.0938 C851.3125,148.0938 849.3125,150.1719 849.3125,152.8906 L849.3125,154.0156 C849.3125,156.5938 851.4219,158.4844 854.3125,158.4844 C855.5313,158.4844 856.6875,158.1875 857.4375,157.6406 C858.0156,157.2344 858.3438,156.7813 858.3438,156.3906 C858.3438,155.9375 857.9531,155.5469 857.4844,155.5469 C857.2656,155.5469 857.0625,155.625 856.875,155.8125 C856.4219,156.2969 856.4219,156.2969 856.2344,156.3906 C855.8125,156.6563 855.125,156.7813 854.3594,156.7813 C852.3125,156.7813 851.0156,155.6875 851.0156,153.9844 L851.0156,152.8906 C851.0156,151.1094 852.2656,149.7969 854,149.7969 C854.5781,149.7969 855.1875,149.9531 855.6563,150.2031 C856.1406,150.4844 856.3125,150.7031 856.4063,151.1094 C856.4688,151.5156 856.5,151.6406 856.6406,151.7656 C856.7813,151.9063 857.0156,152.0156 857.2344,152.0156 C857.5,152.0156 857.7656,151.875 857.9375,151.6563 C858.0469,151.5 858.0781,151.3125 858.0781,150.8906 L858.0781,149.4688 C858.0781,149.0313 858.0625,148.9063 857.9688,148.75 C857.8125,148.4844 857.5313,148.3438 857.2344,148.3438 C856.9375,148.3438 856.7344,148.4375 856.5156,148.75 L856.3438,148.6719 Z " fill="#000000"/><text fill="#000000" font-family="sans-serif" font-size="14" lengthAdjust="spacing" textLength="68" x="868" y="157.8467">NSObject</text></g><!--MD5=[3f62f595642f72328ed004a2962c5c15]
reverse link AgoraRtmController to AgoraRtmController0--><g id="link_AgoraRtmController_AgoraRtmController0"><path codeLine="73" d="M546.716,585.685 C466.118,627.991 366.328,680.372 289.276,720.817 " fill="none" id="AgoraRtmController-backto-AgoraRtmController0" style="stroke:#181818;stroke-width:1.0;stroke-dasharray:7.0,7.0;"/><polygon fill="#181818" points="551.509,583.169,541.6811,583.811,547.082,585.4932,545.3998,590.8941,551.509,583.169" style="stroke:#181818;stroke-width:1.0;"/><text fill="#000000" font-family="sans-serif" font-size="13" lengthAdjust="spacing" textLength="21" x="367" y="687.0669">ext</text></g><!--MD5=[0ed503e6ed7fc14bf0a46e0147744068]
reverse link AgoraRtmController to AgoraRtmController1--><g id="link_AgoraRtmController_AgoraRtmController1"><path codeLine="74" d="M640.056,587.632 C613.291,629.538 580.511,680.863 555.087,720.669 " fill="none" id="AgoraRtmController-backto-AgoraRtmController1" style="stroke:#181818;stroke-width:1.0;stroke-dasharray:7.0,7.0;"/><polygon fill="#181818" points="642.792,583.349,634.5758,588.7799,640.1001,587.5625,641.3175,593.0869,642.792,583.349" style="stroke:#181818;stroke-width:1.0;"/><text fill="#000000" font-family="sans-serif" font-size="13" lengthAdjust="spacing" textLength="21" x="582" y="687.0669">ext</text></g><!--MD5=[78edc6520354c7a9842fca9a061861db]
reverse link AgoraRtmController to AgoraRtmController2--><g id="link_AgoraRtmController_AgoraRtmController2"><path codeLine="75" d="M738.224,587.632 C765.141,629.538 798.109,680.863 823.678,720.669 " fill="none" id="AgoraRtmController-backto-AgoraRtmController2" style="stroke:#181818;stroke-width:1.0;stroke-dasharray:7.0,7.0;"/><polygon fill="#181818" points="735.472,583.349,736.9689,593.0834,738.1735,587.5563,743.7007,588.761,735.472,583.349" style="stroke:#181818;stroke-width:1.0;"/><text fill="#000000" font-family="sans-serif" font-size="13" lengthAdjust="spacing" textLength="21" x="805" y="687.0669">ext</text></g><!--MD5=[21d1b641f0eae33e160eb07cb3d7be37]
reverse link AgoraRtmController to AgoraRtmController3--><g id="link_AgoraRtmController_AgoraRtmController3"><path codeLine="76" d="M787.669,586.281 C816.299,606.391 848.173,627.185 879,644 C918.621,665.612 1017.51,705.539 1099.3,737.403 " fill="none" id="AgoraRtmController-backto-AgoraRtmController3" style="stroke:#181818;stroke-width:1.0;stroke-dasharray:7.0,7.0;"/><polygon fill="#181818" points="783.469,583.32,788.5186,591.7759,787.5551,586.2017,793.1293,585.2382,783.469,583.32" style="stroke:#181818;stroke-width:1.0;"/><text fill="#000000" font-family="sans-serif" font-size="13" lengthAdjust="spacing" textLength="21" x="978" y="687.0669">ext</text></g><!--MD5=[031529c1facec3d7f2bc7d76efc2edb1]
reverse link AgoraRtmDelegate to AgoraRtmController--><g id="link_AgoraRtmDelegate_AgoraRtmController"><path codeLine="77" d="M466.895,173.48 C499.459,222.673 586.32,353.887 641.267,436.893 " fill="none" id="AgoraRtmDelegate-backto-AgoraRtmController" style="stroke:#181818;stroke-width:1.0;stroke-dasharray:7.0,7.0;"/><polygon fill="#181818" points="464.098,169.254,465.7298,178.9667,466.8576,173.4235,472.4009,174.5513,464.098,169.254" style="stroke:#181818;stroke-width:1.0;"/><text fill="#000000" font-family="sans-serif" font-size="13" lengthAdjust="spacing" textLength="47" x="580" y="342.0669">inherits</text></g><!--MD5=[748d3f613197265effb1633a270d299d]
reverse link AgoraRtmChannelDelegate to AgoraRtmController--><g id="link_AgoraRtmChannelDelegate_AgoraRtmController"><path codeLine="78" d="M689,174.38 C689,224.255 689,354.388 689,436.893 " fill="none" id="AgoraRtmChannelDelegate-backto-AgoraRtmController" style="stroke:#181818;stroke-width:1.0;stroke-dasharray:7.0,7.0;"/><polygon fill="#181818" points="689,169.254,685,178.254,689,174.254,693,178.254,689,169.254" style="stroke:#181818;stroke-width:1.0;"/><text fill="#000000" font-family="sans-serif" font-size="13" lengthAdjust="spacing" textLength="47" x="690" y="342.0669">inherits</text></g><!--MD5=[979ba6ba870d83ae340133c43224cfd4]
reverse link AnyObject to RtmControllerDelegate--><g id="link_AnyObject_RtmControllerDelegate"><path codeLine="79" d="M1094,189.5 C1094,232.885 1094,308.795 1094,375.738 " fill="none" id="AnyObject-backto-RtmControllerDelegate" style="stroke:#181818;stroke-width:1.0;stroke-dasharray:7.0,7.0;"/><polygon fill="none" points="1087,189.254,1094,169.254,1101,189.254,1087,189.254" style="stroke:#181818;stroke-width:1.0;"/><text fill="#000000" font-family="sans-serif" font-size="13" lengthAdjust="spacing" textLength="47" x="1095" y="342.0669">inherits</text></g><!--MD5=[acae2d9fc48d1c3f4f7dc7cd9727115f]
reverse link NSObject to AgoraRtmController--><g id="link_NSObject_AgoraRtmController"><path codeLine="80" d="M880.651,173.767 C868.506,202.032 844.809,255.401 821,299 C795.304,346.054 763.382,397.009 737.366,436.941 " fill="none" id="NSObject-backto-AgoraRtmController" style="stroke:#181818;stroke-width:1.0;stroke-dasharray:7.0,7.0;"/><polygon fill="#181818" points="882.64,169.12,875.4194,175.818,880.6713,173.7161,882.7732,178.968,882.64,169.12" style="stroke:#181818;stroke-width:1.0;"/><text fill="#000000" font-family="sans-serif" font-size="13" lengthAdjust="spacing" textLength="47" x="803" y="342.0669">inherits</text></g><!--MD5=[4f2d738fdd26674e1fa73c41d38ee2fc]
@startuml
' STYLE START
hide empty members
skinparam shadowing false
' STYLE END

class "AgoraRtmController" as AgoraRtmController << (X, Orchid) extension >> { 
  +rtmKit(_:peersOnlineStatusChanged:)
  +rtmKit(_:fileMessageReceived:fromPeer:)
  +rtmKit(_:imageMessageReceived:fromPeer:)
  +rtmKit(_:media:uploadingProgress:)
  +rtmKit(_:media:downloadingProgress:)
  +rtmKit(_:connectionStateChanged:reason:) 
}
class "AgoraRtmController" as AgoraRtmController0 << (X, Orchid) extension >> { 
  +channel(_:memberCount:)
  +channel(_:memberLeft:)
  +channel(_:attributeUpdate:)
  +channel(_:fileMessageReceived:from:)
  +channel(_:imageMessageReceived:from:) 
}
class "AgoraRtmController" as AgoraRtmController1 << (X, Orchid) extension >> { 
  +rtmKitTokenDidExpire(_:)
  +rtmKit(_:messageReceived:fromPeer:)
  +channel(_:memberJoined:)
  +channel(_:messageReceived:from:)
  +decodeMessage(message:from:) 
}
class "AgoraRtmController" as AgoraRtmController2 << (X, Orchid) extension >> { 
  +sendCodable(message:channel:callback:)
  +{static} createRtmMessage(from:)
  +sendCodable(message:channel:callback:)
  +sendCodable(message:member:callback:)
  +sendCodable(message:user:callback:) 
}
class "AgoraRtmController" as AgoraRtmController3 << (X, Orchid) extension >> { 
  +{static} fetchRtmToken(urlBase:userId:callback:)
  newTokenFetched(result:)
  updateToken(_:) 
}
class "RtmControllerDelegate" as RtmControllerDelegate << (P, GoldenRod) protocol >> { 
  +rtmChannelJoined(name:channel:code:)
  +rtcLookup : [UInt: String]
  +rtmLookup : [String: Codable]
  +rtmDelegate : AgoraRtmDelegate?
  +rtmChannelDelegate : AgoraRtmChannelDelegate?
  +rtmId : String
  +rtcId : UInt?
  +appId : String
  +rtmToken : String?
  +tokenURL : String?
  +channel(_:memberJoined:)
  +decodeMessage(message:from:)
  +rtmStateChanged(from:to:) 
}
class "AgoraRtmController" as AgoraRtmController4 << (C, DarkSeaGreen) >> { 
  +{static} printLevel : PrintType
  ~{static} agoraPrint(_:message:)
  ~rtmDelegate : AgoraRtmDelegate?
  ~rtmChannelDelegate : AgoraRtmChannelDelegate?
  ~delegate : RtmControllerDelegate!
  +rtmStatus : RTMStatus
  +rtmKit : AgoraRtmKit
  +channels : [String: AgoraRtmChannel]
  +afterLoginSteps : [() -> Void]
  +init(delegate:)
  ~rtmLogin(completion:)
  +rtmLoggedIn(code:)
  +joinChannel(named:callback:)
  +leaveChannel(named:)
  +rtmChannelJoined(name:channel:code:) 
}

AgoraRtmController <.. AgoraRtmController0 : ext
AgoraRtmController <.. AgoraRtmController1 : ext
AgoraRtmController <.. AgoraRtmController2 : ext
AgoraRtmController <.. AgoraRtmController3 : ext
AgoraRtmDelegate <.. AgoraRtmController : inherits
AgoraRtmChannelDelegate <.. AgoraRtmController : inherits
AnyObject <|.. RtmControllerDelegate : inherits
NSObject <.. AgoraRtmController : inherits
@enduml

@startuml
hide empty members
skinparam shadowing false

class "AgoraRtmController" as AgoraRtmController << (X, Orchid) extension >> { 
  +rtmKit(_:peersOnlineStatusChanged:)
  +rtmKit(_:fileMessageReceived:fromPeer:)
  +rtmKit(_:imageMessageReceived:fromPeer:)
  +rtmKit(_:media:uploadingProgress:)
  +rtmKit(_:media:downloadingProgress:)
  +rtmKit(_:connectionStateChanged:reason:) 
}
class "AgoraRtmController" as AgoraRtmController0 << (X, Orchid) extension >> { 
  +channel(_:memberCount:)
  +channel(_:memberLeft:)
  +channel(_:attributeUpdate:)
  +channel(_:fileMessageReceived:from:)
  +channel(_:imageMessageReceived:from:) 
}
class "AgoraRtmController" as AgoraRtmController1 << (X, Orchid) extension >> { 
  +rtmKitTokenDidExpire(_:)
  +rtmKit(_:messageReceived:fromPeer:)
  +channel(_:memberJoined:)
  +channel(_:messageReceived:from:)
  +decodeMessage(message:from:) 
}
class "AgoraRtmController" as AgoraRtmController2 << (X, Orchid) extension >> { 
  +sendCodable(message:channel:callback:)
  +{static} createRtmMessage(from:)
  +sendCodable(message:channel:callback:)
  +sendCodable(message:member:callback:)
  +sendCodable(message:user:callback:) 
}
class "AgoraRtmController" as AgoraRtmController3 << (X, Orchid) extension >> { 
  +{static} fetchRtmToken(urlBase:userId:callback:)
  newTokenFetched(result:)
  updateToken(_:) 
}
class "RtmControllerDelegate" as RtmControllerDelegate << (P, GoldenRod) protocol >> { 
  +rtmChannelJoined(name:channel:code:)
  +rtcLookup : [UInt: String]
  +rtmLookup : [String: Codable]
  +rtmDelegate : AgoraRtmDelegate?
  +rtmChannelDelegate : AgoraRtmChannelDelegate?
  +rtmId : String
  +rtcId : UInt?
  +appId : String
  +rtmToken : String?
  +tokenURL : String?
  +channel(_:memberJoined:)
  +decodeMessage(message:from:)
  +rtmStateChanged(from:to:) 
}
class "AgoraRtmController" as AgoraRtmController4 << (C, DarkSeaGreen) >> { 
  +{static} printLevel : PrintType
  ~{static} agoraPrint(_:message:)
  ~rtmDelegate : AgoraRtmDelegate?
  ~rtmChannelDelegate : AgoraRtmChannelDelegate?
  ~delegate : RtmControllerDelegate!
  +rtmStatus : RTMStatus
  +rtmKit : AgoraRtmKit
  +channels : [String: AgoraRtmChannel]
  +afterLoginSteps : [() -> Void]
  +init(delegate:)
  ~rtmLogin(completion:)
  +rtmLoggedIn(code:)
  +joinChannel(named:callback:)
  +leaveChannel(named:)
  +rtmChannelJoined(name:channel:code:) 
}

AgoraRtmController <.. AgoraRtmController0 : ext
AgoraRtmController <.. AgoraRtmController1 : ext
AgoraRtmController <.. AgoraRtmController2 : ext
AgoraRtmController <.. AgoraRtmController3 : ext
AgoraRtmDelegate <.. AgoraRtmController : inherits
AgoraRtmChannelDelegate <.. AgoraRtmController : inherits
AnyObject <|.. RtmControllerDelegate : inherits
NSObject <.. AgoraRtmController : inherits
@enduml

PlantUML version 1.2022.4beta2(Unknown compile time)
(GPL source distribution)
Java Runtime: Java(TM) SE Runtime Environment
JVM: Java HotSpot(TM) 64-Bit Server VM
Default Encoding: UTF-8
Language: en
Country: US
--></g></svg>